<?xml version="1.0" encoding="UTF-8" standalone="no"?>
<!-- Created with Inkscape (http://www.inkscape.org/) -->

<svg
   xmlns:dc="http://purl.org/dc/elements/1.1/"
   xmlns:cc="http://creativecommons.org/ns#"
   xmlns:rdf="http://www.w3.org/1999/02/22-rdf-syntax-ns#"
   xmlns:svg="http://www.w3.org/2000/svg"
   xmlns="http://www.w3.org/2000/svg"
   xmlns:xlink="http://www.w3.org/1999/xlink"
   xmlns:sodipodi="http://sodipodi.sourceforge.net/DTD/sodipodi-0.dtd"
   xmlns:inkscape="http://www.inkscape.org/namespaces/inkscape"
   width="128.90251mm"
   height="129.82045mm"
   viewBox="0 0 456.74118 459.99372"
   id="svg2"
   version="1.1"
   inkscape:version="0.91 r13725"
   sodipodi:docname="SummerGUI3.svg"
   inkscape:export-filename="/home/detlef/KSAll/KS.OpenGL/Artwork/SummerGUI_256px.png"
   inkscape:export-xdpi="50.478951"
   inkscape:export-ydpi="50.478951">
  <defs
     id="defs4">
    <linearGradient
       inkscape:collect="always"
       id="linearGradient4302">
      <stop
         style="stop-color:#cb4b16;stop-opacity:1;"
         offset="0"
         id="stop4304" />
      <stop
         style="stop-color:#cb4b16;stop-opacity:0;"
         offset="1"
         id="stop4306" />
    </linearGradient>
    <filter
       inkscape:collect="always"
       style="color-interpolation-filters:sRGB"
       id="filter4225"
       x="-0.035987336"
       width="1.0719748"
       y="-0.036012672"
       height="1.0720253">
      <feGaussianBlur
         inkscape:collect="always"
         stdDeviation="6.1906157"
         id="feGaussianBlur4227" />
    </filter>
    <linearGradient
       inkscape:collect="always"
       xlink:href="#linearGradient4302"
       id="linearGradient4308"
       x1="43.392025"
       y1="346.37393"
       x2="452.20493"
       y2="202.93228"
       gradientUnits="userSpaceOnUse"
       gradientTransform="translate(-5.0507627,3.0304576)" />
    <linearGradient
       inkscape:collect="always"
       xlink:href="#linearGradient4302"
       id="linearGradient4316"
       x1="30.956411"
       y1="292.87259"
       x2="458.52701"
       y2="292.87259"
       gradientUnits="userSpaceOnUse" />
  </defs>
  <sodipodi:namedview
     id="base"
     pagecolor="#ffffff"
     bordercolor="#666666"
     borderopacity="1.0"
     inkscape:pageopacity="0.0"
     inkscape:pageshadow="2"
     inkscape:zoom="0.98994949"
     inkscape:cx="324.30375"
     inkscape:cy="140.30871"
     inkscape:document-units="px"
     inkscape:current-layer="layer1"
     showgrid="false"
     inkscape:window-width="1280"
     inkscape:window-height="1000"
     inkscape:window-x="0"
     inkscape:window-y="24"
     inkscape:window-maximized="1"
     fit-margin-top="3"
     fit-margin-left="3"
     fit-margin-right="1"
     fit-margin-bottom="1" />
  <metadata
     id="metadata7">
    <rdf:RDF>
      <cc:Work
         rdf:about="">
        <dc:format>image/svg+xml</dc:format>
        <dc:type
           rdf:resource="http://purl.org/dc/dcmitype/StillImage" />
        <dc:title></dc:title>
      </cc:Work>
    </rdf:RDF>
  </metadata>
  <g
     inkscape:label="Layer 1"
     inkscape:groupmode="layer"
     id="layer1"
     transform="translate(-15.906088,-68.607786)">
    <path
       sodipodi:type="star"
       style="fill:#000080;fill-opacity:1;fill-rule:nonzero;stroke:none;stroke-width:1.20000005;stroke-miterlimit:4;stroke-dasharray:none;stroke-opacity:1;filter:url(#filter4225)"
       id="path4167"
       sodipodi:sides="17"
       sodipodi:cx="248.55846"
       sodipodi:cy="302.88992"
       sodipodi:r1="149.37498"
       sodipodi:r2="207.46527"
       sodipodi:arg1="0.68538693"
       sodipodi:arg2="0.8701865"
       inkscape:flatsided="false"
       inkscape:rounded="0"
       inkscape:randomized="0"
       d="m 364.20071,397.4402 18.10728,64.04638 -60.07184,-28.65635 -6.25168,66.26258 -45.66346,-48.42171 -29.76633,59.52965 -25.08797,-61.64744 -49.26086,44.7569 -1.12421,-66.54734 -62.10244,23.93949 22.99137,-62.45966 -66.556744,-0.11108 44.001854,-49.93645 -62.022193,-24.14665 59.069633,-30.66906 -49.111194,-44.92107 66.159734,-7.25963 -29.567461,-59.62867 64.314601,17.13025 -6.03048,-66.28308 53.78341,39.2066 18.32096,-63.985591 35.98848,55.987871 40.19805,-53.04649 13.33311,65.20767 56.64616,-34.94317 -11.12297,65.62082 65.4439,-12.12058 -34.07684,57.17151 65.40308,12.33896 -52.42844,41.00087 56.52921,35.13206 -63.69928,19.29284 40.02076,53.18037 z"
       inkscape:transform-center-x="16.301203"
       inkscape:transform-center-y="-3.6566861" />
    <path
       sodipodi:type="star"
       style="fill:#ffff00;fill-opacity:1;fill-rule:nonzero;stroke:url(#linearGradient4316);stroke-width:6.0999999;stroke-miterlimit:4;stroke-dasharray:none;stroke-opacity:1"
       id="path4251"
       sodipodi:sides="17"
       sodipodi:cx="245.50653"
       sodipodi:cy="291.8063"
       sodipodi:r1="149.37498"
       sodipodi:r2="207.46527"
       sodipodi:arg1="0.68538693"
       sodipodi:arg2="0.8701865"
       inkscape:flatsided="false"
       inkscape:rounded="0"
       inkscape:randomized="0"
       d="m 361.14879,386.35658 18.10728,64.04638 -60.07184,-28.65635 -6.25169,66.26258 -45.66346,-48.4217 -29.76632,59.52964 -25.08797,-61.64744 -49.26087,44.75691 -1.12421,-66.54735 -62.10244,23.93949 22.99138,-62.45966 L 56.3619,377.04801 100.36375,327.11155 38.341562,302.9649 97.411196,272.29585 48.3,227.37477 l 66.15974,-7.25963 -29.567467,-59.62867 64.314597,17.13025 -6.03048,-66.28308 53.78342,39.2066 18.32095,-63.985589 35.98849,55.987869 40.19804,-53.04649 13.33311,65.20768 56.64616,-34.94318 -11.12297,65.62083 65.4439,-12.12059 -34.07683,57.17151 65.40308,12.33896 -52.42844,41.00088 56.52921,35.13205 -63.69929,19.29284 40.02076,53.18037 z"
       inkscape:transform-center-x="16.301203"
       inkscape:transform-center-y="-3.6566861" />
    <path
       style="fill:url(#linearGradient4308);fill-opacity:1;fill-rule:nonzero;stroke:none;stroke-width:1.20000005;stroke-miterlimit:4;stroke-dasharray:none;stroke-opacity:1"
       d="m 207.19949,81.50386 -3.0957,10.8086 4.94141,127.54882 9.47461,-120.746085 -11.32032,-17.611335 z m 76.1875,2.94141 -19.99218,26.38086 L 218.05301,221.998 286.24637,98.431605 283.38699,84.44527 Z m -80.18164,11.009765 -9.72656,33.970705 13.23633,90.51367 -3.50977,-124.484375 z m 83.30469,4.26954 -66.41016,123.388665 70.92579,-101.31055 -4.51563,-22.078115 z m -67.0332,0.878895 -8.10743,119.42774 19.1211,-102.29102 -11.01367,-17.13672 z m -84.38086,5.67969 1.98242,21.79687 60.78906,94.5918 -53.5332,-109.6543 -9.23828,-6.73437 z m 125.69922,7.97265 -17.60743,23.23633 -2.19336,-3.41015 -25.0957,87.02343 44.89649,-106.84961 z m -114.61524,0.10743 53.77735,107.27539 -33.5254,-92.51172 -20.25195,-14.76367 z m 207.18555,0.34765 -24.625,15.19141 -103.36524,97.76172 124.58399,-92.86133 3.40625,-20.0918 z m -121.89063,4.56055 -17.8125,101.17578 26.35157,-87.89258 -8.53907,-13.2832 z m 59.83594,3.93555 -69.29297,101.23242 72.90235,-83.58008 -3.60938,-17.65234 z m -122.97656,7.30664 33.81055,90.32031 -19.68164,-80.02148 -14.12891,-10.29883 z m -31.02539,0.0898 2.10351,23.13281 56.48829,70.18555 -58.5918,-93.31836 z m 187.75586,1.56445 -28.34571,17.48633 -1.50195,-7.34961 -71.43555,83.65821 101.28321,-93.79493 z m -132.52344,0.53125 -3.66211,12.79102 -4.55664,-3.32031 20.08398,78.09375 -11.86523,-87.56446 z m 157.24805,3.10743 -123.01172,93.7207 119.06055,-70.4082 3.95117,-23.3125 z m -272.027361,19.88476 113.179701,73.125 -76.74219,-63.42187 -36.437511,-9.70313 z m 61.880871,0.57227 1.45508,16.0039 52.97852,53.10743 -54.4336,-69.11133 z M 77.342059,156.50773 88.986591,179.9882 189.66629,230.76945 77.342059,156.50773 Z m 268.302751,3.75195 -117.66993,71.26758 114.42774,-52.14063 3.24219,-19.12695 z m -228.40235,5.94531 75.17578,60.80664 -53.8457,-55.125 -21.33008,-5.68164 z m 290.44336,2.00586 -64.58594,11.96289 -114.14648,53.46875 174.27734,-57.95703 4.45508,-7.47461 z m -4.77148,8.00391 -173.21485,59.63672 158.22071,-34.47852 14.99414,-25.1582 z m -313.070329,5.50586 8.464846,17.07031 90.296883,34.05274 -98.761729,-51.12305 z m 9.332036,18.81836 6.529303,13.16406 82.06641,21.31836 -88.595713,-34.48242 z m 288.298833,1.58008 -157.26757,36.00781 145.19531,-15.75195 12.07226,-20.25586 z m -281.91797,13.03515 -38.619151,4.23828 120.236341,17.88282 -81.61719,-22.1211 z m -42.572271,4.67188 -22.765616,2.49804 12.8418,11.7461 133.757807,5.50781 -123.833991,-19.75195 z m 311.904311,3.41015 -144.41797,17.20703 205.47265,-0.32226 3.06836,-2.40039 -65.40234,-12.33789 1.2793,-2.14649 z m -320.757817,11.8125 15.847646,14.4961 116.732431,-7.63867 -132.580077,-6.85743 z m 381.593747,5.24219 -205.23632,2.48242 178.08007,18.75586 27.15625,-21.23828 z m -248.875,3.94336 -115.734381,6.34961 12.62109,11.54492 103.113291,-17.89453 z m 43.40625,0.85938 156.4043,33.56836 21.39648,-16.73243 -177.80078,-16.83593 z m -43.01953,1.43945 -102.343761,16.6543 4.437502,4.05859 -31.111322,16.1543 129.017581,-36.86719 z m 42.54102,0.8418 207.43945,68.26367 5.89649,-1.78516 -55.12891,-34.25976 -158.20703,-32.21875 z m -41.91211,1.40234 -133.537107,36.64258 -24.06836,12.49609 18.5,7.20313 139.105467,-56.3418 z m 41.19531,0.81641 171.03906,77.2871 37.0625,-11.2246 -208.10156,-66.0625 z m -40.33203,1.3496 -138.937497,54.57618 21.382796,8.32617 117.554701,-62.90235 z m 39.38477,0.7793 161.29101,94.69922 -9.99023,-13.27539 20.16211,-6.10742 -171.46289,-75.31637 z m -38.29493,1.28125 -117.496101,61.28906 17.490232,6.8086 100.005869,-68.09766 z m 37.125,0.73633 177.51954,131.45508 14.9707,1.13281 -29.47656,-39.17183 -163.01368,-93.41602 z m -35.82226,1.19727 -100.105479,66.63281 1.26562,0.49219 -43.999988,49.93554 5.0586,0.008 137.781247,-117.06835 z m 34.44336,0.68164 137.39258,126.43554 41.49609,3.14063 -178.88867,-129.57617 z m -32.94336,1.10351 -138.611327,115.28516 28.992176,0.0488 109.619151,-115.33399 z m 31.375,0.6211 138.69531,158.00586 -9.625,-34.04297 9.29297,0.70312 -138.36328,-124.66601 z m -29.69531,0.99414 -110.386731,113.7207 23.277351,0.0371 87.10938,-113.75781 z m 27.95117,0.55273 122.54101,173.87891 26.38086,12.58398 -8.41015,-29.74609 -140.51172,-156.7168 z m -26.10742,0.87305 -87.91016,112.33398 6.60352,0.0117 -19.699233,53.51172 101.005873,-165.85742 z m 24.20898,0.48047 90.20312,162.24609 0.54688,-5.79297 33.51758,15.98828 -124.26758,-172.4414 z m -22.22461,0.74414 -103.476569,165.95703 -2.80664,7.62304 29.888679,-11.52148 76.39453,-162.05859 z m 20.19336,0.39843 86.43359,203.91016 -88.57617,-202.98828 56.59571,186.63867 32.07617,34.01172 5.64453,-59.81445 -92.17383,-161.75782 z m -18.08984,0.60547 -77.89063,160.82032 25.49414,-9.82813 52.39649,-150.99219 z m 2.19921,0.77539 -53.79687,149.90821 5.3125,-2.04688 0.96875,57.35547 47.51562,-205.2168 z m 11.52149,0.22852 36.09766,189.81445 9.13671,-18.27343 13.1504,13.94531 -58.38477,-185.48633 z m -9.25391,0.31055 -49.77539,205.13086 0.14844,8.74023 26.54883,-24.12305 23.07812,-189.74804 z m 6.9668,0.13671 18.01562,220.74024 -20.33789,-220.53711 -4.27734,170.57617 24.35547,59.84375 20.41211,-40.82422 -38.16797,-189.79883 z m -4.6543,0.15626 -25.02343,189.12304 22.3457,-20.30273 0.2168,0.53125 2.46093,-169.35156 z"
       id="path4138"
       inkscape:connector-curvature="0" />
  </g>
</svg>
